REM DIRINDEX 1\3,1\2\4,1\2\5,1\2\6
REM DIRNAME folder01,folder02,folder03,folder04,folder05,folder06
TITLE ""
FILE "128.mp3" MP3
  TRACK 01 AUDIO
    TITLE "4:cjc137_5305"
    INDEX 01 00:00:00
  TRACK 02 AUDIO
    TITLE "0:"
    INDEX 01 00:01:11
  TRACK 03 AUDIO
    TITLE "6:cjc137_5306"
    INDEX 01 00:01:21
  TRACK 04 AUDIO
    TITLE "0:"
    INDEX 01 00:02:06
  TRACK 05 AUDIO
    TITLE "5:cjc137_5307"
    INDEX 01 00:02:14
  TRACK 06 AUDIO
    TITLE "0:"
    INDEX 01 00:03:23
  TRACK 07 AUDIO
    TITLE "4:cjc137_5308"
    INDEX 01 00:04:35
  TRACK 08 AUDIO
    TITLE "0:"
    INDEX 01 00:05:50
  TRACK 09 AUDIO
    TITLE "6:cjc137_5309"
    INDEX 01 00:05:56
  TRACK 10 AUDIO
    TITLE "0:"
    INDEX 01 00:06:65
  TRACK 11 AUDIO
    TITLE "5:cjc137_5310"
    INDEX 01 00:06:71
  TRACK 12 AUDIO
    TITLE "0:"
    INDEX 01 00:08:11
  TRACK 13 AUDIO
    TITLE "4:cjc137_5311"
    INDEX 01 00:09:18
  TRACK 14 AUDIO
    TITLE "0:"
    INDEX 01 00:10:47
  TRACK 15 AUDIO
    TITLE "6:cjc137_5312"
    INDEX 01 00:10:51
  TRACK 16 AUDIO
    TITLE "0:"
    INDEX 01 00:11:50
  TRACK 17 AUDIO
    TITLE "5:cjc137_5313"
    INDEX 01 00:11:56
  TRACK 18 AUDIO
    TITLE "0:"
    INDEX 01 00:13:08
  TRACK 19 AUDIO
    TITLE "4:cjc137_5314"
    INDEX 01 00:14:19
  TRACK 20 AUDIO
    TITLE "0:"
    INDEX 01 00:15:19
  TRACK 21 AUDIO
    TITLE "6:cjc137_5315"
    INDEX 01 00:15:30
  TRACK 22 AUDIO
    TITLE "0:"
    INDEX 01 00:16:22
  TRACK 23 AUDIO
    TITLE "5:cjc137_5316"
    INDEX 01 00:16:30
  TRACK 24 AUDIO
    TITLE "0:"
    INDEX 01 00:17:33
  TRACK 25 AUDIO
    TITLE "4:cjc137_5317"
    INDEX 01 00:18:42
  TRACK 26 AUDIO
    TITLE "0:"
    INDEX 01 00:19:40
  TRACK 27 AUDIO
    TITLE "6:cjc137_5318"
    INDEX 01 00:19:48
  TRACK 28 AUDIO
    TITLE "0:"
    INDEX 01 00:20:55
  TRACK 29 AUDIO
    TITLE "5:cjc137_5319"
    INDEX 01 00:20:61
  TRACK 30 AUDIO
    TITLE "0:"
    INDEX 01 00:21:62
  TRACK 31 AUDIO
    TITLE "4:cjc137_5320"
    INDEX 01 00:22:70
  TRACK 32 AUDIO
    TITLE "0:"
    INDEX 01 00:24:20
  TRACK 33 AUDIO
    TITLE "6:cjc137_5321"
    INDEX 01 00:24:27
  TRACK 34 AUDIO
    TITLE "0:"
    INDEX 01 00:25:46
  TRACK 35 AUDIO
    TITLE "5:cjc137_5322"
    INDEX 01 00:25:52
  TRACK 36 AUDIO
    TITLE "0:"
    INDEX 01 00:27:02
  TRACK 37 AUDIO
    TITLE "4:cjc137_5323"
    INDEX 01 00:28:12
  TRACK 38 AUDIO
    TITLE "0:"
    INDEX 01 00:29:29
  TRACK 39 AUDIO
    TITLE "6:cjc137_5324"
    INDEX 01 00:29:38
  TRACK 40 AUDIO
    TITLE "0:"
    INDEX 01 00:30:67
  TRACK 41 AUDIO
    TITLE "5:cjc137_5325"
    INDEX 01 00:30:73
  TRACK 42 AUDIO
    TITLE "0:"
    INDEX 01 00:32:17
  TRACK 43 AUDIO
    TITLE "4:cjc137_5326"
    INDEX 01 00:33:26
  TRACK 44 AUDIO
    TITLE "0:"
    INDEX 01 00:34:34
  TRACK 45 AUDIO
    TITLE "6:cjc137_5327"
    INDEX 01 00:34:40
  TRACK 46 AUDIO
    TITLE "0:"
    INDEX 01 00:35:35
  TRACK 47 AUDIO
    TITLE "5:cjc137_5328"
    INDEX 01 00:35:39
  TRACK 48 AUDIO
    TITLE "0:"
    INDEX 01 00:36:50
  TRACK 49 AUDIO
    TITLE "4:cjc137_5329"
    INDEX 01 00:37:57
  TRACK 50 AUDIO
    TITLE "0:"
    INDEX 01 00:38:67
  TRACK 51 AUDIO
    TITLE "6:cjc137_5330"
    INDEX 01 00:39:02
  TRACK 52 AUDIO
    TITLE "0:"
    INDEX 01 00:40:28
  TRACK 53 AUDIO
    TITLE "5:cjc137_5331"
    INDEX 01 00:40:34
  TRACK 54 AUDIO
    TITLE "0:"
    INDEX 01 00:41:45
  TRACK 55 AUDIO
    TITLE "4:cjc137_5332"
    INDEX 01 00:42:53
  TRACK 56 AUDIO
    TITLE "0:"
    INDEX 01 00:43:62
  TRACK 57 AUDIO
    TITLE "6:cjc137_5333"
    INDEX 01 00:43:72
  TRACK 58 AUDIO
    TITLE "0:"
    INDEX 01 00:44:56
  TRACK 59 AUDIO
    TITLE "5:cjc137_5334"
    INDEX 01 00:44:63
  TRACK 60 AUDIO
    TITLE "0:"
    INDEX 01 00:45:71
  TRACK 61 AUDIO
    TITLE "4:cjc137_5335"
    INDEX 01 00:47:09
  TRACK 62 AUDIO
    TITLE "0:"
    INDEX 01 00:48:40
  TRACK 63 AUDIO
    TITLE "6:cjc137_5336"
    INDEX 01 00:48:46
  TRACK 64 AUDIO
    TITLE "0:"
    INDEX 01 00:49:65
  TRACK 65 AUDIO
    TITLE "5:cjc137_5337"
    INDEX 01 00:49:72
  TRACK 66 AUDIO
    TITLE "0:"
    INDEX 01 00:51:28
  TRACK 67 AUDIO
    TITLE "4:cjc137_5338"
    INDEX 01 00:52:36
  TRACK 68 AUDIO
    TITLE "0:"
    INDEX 01 00:53:62
  TRACK 69 AUDIO
    TITLE "6:cjc137_5339"
    INDEX 01 00:53:66
  TRACK 70 AUDIO
    TITLE "0:"
    INDEX 01 00:55:12
  TRACK 71 AUDIO
    TITLE "5:cjc137_5340"
    INDEX 01 00:55:16
  TRACK 72 AUDIO
    TITLE "0:"
    INDEX 01 00:56:41
  TRACK 73 AUDIO
    TITLE "4:cjc137_5341"
    INDEX 01 00:57:50
  TRACK 74 AUDIO
    TITLE "0:"
    INDEX 01 00:58:62
  TRACK 75 AUDIO
    TITLE "6:cjc137_5342"
    INDEX 01 00:58:69
  TRACK 76 AUDIO
    TITLE "0:"
    INDEX 01 01:00:02
  TRACK 77 AUDIO
    TITLE "5:cjc137_5343"
    INDEX 01 01:00:08
  TRACK 78 AUDIO
    TITLE "0:"
    INDEX 01 01:01:23
  TRACK 79 AUDIO
    TITLE "4:cjc137_5344"
    INDEX 01 01:02:30
  TRACK 80 AUDIO
    TITLE "0:"
    INDEX 01 01:03:53
  TRACK 81 AUDIO
    TITLE "6:cjc137_5345"
    INDEX 01 01:03:61
  TRACK 82 AUDIO
    TITLE "0:"
    INDEX 01 01:05:11
  TRACK 83 AUDIO
    TITLE "5:cjc137_5346"
    INDEX 01 01:05:19
  TRACK 84 AUDIO
    TITLE "0:"
    INDEX 01 01:06:43
  TRACK 85 AUDIO
    TITLE "4:cjc137_5347"
    INDEX 01 01:07:53
  TRACK 86 AUDIO
    TITLE "0:"
    INDEX 01 01:08:64
  TRACK 87 AUDIO
    TITLE "6:cjc137_5348"
    INDEX 01 01:09:01
  TRACK 88 AUDIO
    TITLE "0:"
    INDEX 01 01:10:16
  TRACK 89 AUDIO
    TITLE "5:cjc137_5349"
    INDEX 01 01:10:24
  TRACK 90 AUDIO
    TITLE "0:"
    INDEX 01 01:11:35
  TRACK 91 AUDIO
    TITLE "4:cjc137_5350"
    INDEX 01 01:12:48
  TRACK 92 AUDIO
    TITLE "0:"
    INDEX 01 01:13:65
  TRACK 93 AUDIO
    TITLE "6:cjc137_5351"
    INDEX 01 01:13:73
  TRACK 94 AUDIO
    TITLE "0:"
    INDEX 01 01:15:03
  TRACK 95 AUDIO
    TITLE "5:cjc137_5352"
    INDEX 01 01:15:09
  TRACK 96 AUDIO
    TITLE "0:"
    INDEX 01 01:16:26
  TRACK 97 AUDIO
    TITLE "4:cjc137_5353"
    INDEX 01 01:17:37
  TRACK 98 AUDIO
    TITLE "0:"
    INDEX 01 01:18:41
  TRACK 99 AUDIO
    TITLE "6:cjc137_5354"
    INDEX 01 01:18:47
  TRACK 100 AUDIO
    TITLE "0:"
    INDEX 01 01:19:40
  TRACK 101 AUDIO
    TITLE "5:cjc137_5355"
    INDEX 01 01:19:46
  TRACK 102 AUDIO
    TITLE "0:"
    INDEX 01 01:20:51
  TRACK 103 AUDIO
    TITLE "4:cjc137_5356"
    INDEX 01 01:21:59
  TRACK 104 AUDIO
    TITLE "0:"
    INDEX 01 01:23:05
  TRACK 105 AUDIO
    TITLE "6:cjc137_5357"
    INDEX 01 01:23:09
  TRACK 106 AUDIO
    TITLE "0:"
    INDEX 01 01:24:39
  TRACK 107 AUDIO
    TITLE "5:cjc137_5358"
    INDEX 01 01:24:43
  TRACK 108 AUDIO
    TITLE "0:"
    INDEX 01 01:25:64
  TRACK 109 AUDIO
    TITLE "4:cjc137_5359"
    INDEX 01 01:26:72
  TRACK 110 AUDIO
    TITLE "0:"
    INDEX 01 01:28:08
  TRACK 111 AUDIO
    TITLE "6:cjc137_5360"
    INDEX 01 01:28:16
  TRACK 112 AUDIO
    TITLE "0:"
    INDEX 01 01:29:09
  TRACK 113 AUDIO
    TITLE "5:cjc137_5361"
    INDEX 01 01:29:13
  TRACK 114 AUDIO
    TITLE "0:"
    INDEX 01 01:30:26
  TRACK 115 AUDIO
    TITLE "4:cjc137_5362"
    INDEX 01 01:31:36
  TRACK 116 AUDIO
    TITLE "0:"
    INDEX 01 01:32:41
  TRACK 117 AUDIO
    TITLE "6:cjc137_5363"
    INDEX 01 01:32:47
  TRACK 118 AUDIO
    TITLE "0:"
    INDEX 01 01:33:44
  TRACK 119 AUDIO
    TITLE "5:cjc137_5364"
    INDEX 01 01:33:48
  TRACK 120 AUDIO
    TITLE "0:"
    INDEX 01 01:34:55
